#N canvas 291 325 898 566 10;
#X obj 108 436 spigot;
#X msg 49 308 1;
#X obj 193 116 tgl 15 0 empty empty empty 17 7 0 10 -262144 -1 -1 0
1;
#X text 103 100 play;
#X text 143 100 stop;
#X text 182 101 loop;
#X obj 49 356 readsf~ 2, f 10;
#X obj 48 283 t b b;
#X obj 109 115 bng 15 250 50 0 empty empty empty 17 7 0 10 -92505 -1
-1;
#X obj 151 116 bng 15 250 50 0 empty empty empty 17 7 0 10 -198036
-1 -1;
#X obj 549 56 notein;
#X obj 618 469 noteout;
#X text 628 70 controllo da launchpad;
#X obj 192 32 loadbang;
#X msg 238 310 open \$1;
#X obj 238 284 makefilename s%d.wav;
#X obj 238 259 \$1;
#X symbolatom 144 140 10 0 0 0 - - -, f 10;
#X obj 192 64 \$2;
#X text 222 66 2nd argument loop yes/no;
#X obj 110 140 tgl 15 0 empty empty empty 17 7 0 10 -262144 -1 -1 0
1;
#X msg 12 145 1;
#X msg 48 145 0;
#X obj 159 436 spigot;
#X obj 198 412 == 0;
#X obj 238 229 loadbang;
#X text 269 259 1st argument: clip number;
#X obj 524 169 route \$1;
#X obj 524 143 pack 0 0;
#X obj 524 191 > 0;
#X obj 524 243 sel 1 0;
#X obj 524 213 change;
#X floatatom 611 92 5 0 0 0 - - -, f 5;
#X floatatom 548 91 5 0 0 0 - - -, f 5;
#X obj 526 348 sel 1 0;
#X obj 525 374 \$1;
#X obj 565 374 \$1;
#X obj 705 376 \$1;
#X msg 797 407 0 \$1;
#X floatatom 802 368 5 0 0 0 - - -, f 5;
#X msg 525 402 \$1 32;
#X msg 565 402 \$1 26;
#X msg 705 400 \$1 26;
#X obj 526 325 change;
#X obj 48 258 sel 1 0;
#X msg 105 285 0;
#X obj 696 286 loadbang;
#X obj 696 308 del 500;
#X obj 753 307 r clearall;
#X obj 18 23 inlet;
#X obj 24 490 outlet~;
#X msg 397 456 \; pd dsp 1;
#X msg 326 456 \; pd dsp 0;
#X obj 38 437 dac~;
#X obj 326 398 loadbang;
#X obj 397 430 del 100;
#X connect 0 0 8 0;
#X connect 1 0 6 0;
#X connect 2 0 0 1;
#X connect 2 0 24 0;
#X connect 6 0 50 0;
#X connect 6 0 53 0;
#X connect 6 1 53 1;
#X connect 6 2 0 0;
#X connect 6 2 23 0;
#X connect 7 0 1 0;
#X connect 7 1 16 0;
#X connect 8 0 21 0;
#X connect 9 0 22 0;
#X connect 10 0 33 0;
#X connect 10 0 28 0;
#X connect 10 1 28 1;
#X connect 10 1 32 0;
#X connect 13 0 18 0;
#X connect 14 0 6 0;
#X connect 15 0 14 0;
#X connect 15 0 17 0;
#X connect 16 0 15 0;
#X connect 18 0 2 0;
#X connect 20 0 43 0;
#X connect 20 0 44 0;
#X connect 21 0 20 0;
#X connect 22 0 20 0;
#X connect 23 0 9 0;
#X connect 24 0 23 1;
#X connect 25 0 16 0;
#X connect 27 0 29 0;
#X connect 28 0 27 0;
#X connect 29 0 31 0;
#X connect 30 0 20 0;
#X connect 31 0 30 0;
#X connect 34 0 35 0;
#X connect 34 1 36 0;
#X connect 35 0 40 0;
#X connect 36 0 41 0;
#X connect 37 0 42 0;
#X connect 38 0 11 0;
#X connect 39 0 38 0;
#X connect 40 0 11 0;
#X connect 41 0 11 0;
#X connect 42 0 11 0;
#X connect 43 0 34 0;
#X connect 44 0 7 0;
#X connect 44 1 45 0;
#X connect 45 0 6 0;
#X connect 46 0 47 0;
#X connect 47 0 37 0;
#X connect 48 0 37 0;
#X connect 49 0 6 0;
#X connect 54 0 52 0;
#X connect 54 0 55 0;
#X connect 55 0 51 0;
#X coords 0 -1 1 1 120 60 2 100 100;
