#N canvas 101 125 537 491 10;
#X obj 12 22 inlet~;
#X text 12 4 Audio Input;
#X obj 124 22 inlet;
#X text 123 4 ADC Toggle (0/1);
#X obj 12 205 outlet~;
#X obj 152 207 outlet~;
#X text 12 222 Audio Output (L);
#X text 153 223 Audio Output (R);
#X obj 193 63 adc~;
#X obj 150 119 *~;
#X obj 199 119 *~;
#X obj 106 53 sig~ 1;
#X obj 106 80 -~;
#X obj 199 148 *~;
#X obj 88 150 *~;
#X obj 150 149 *~;
#X obj 12 149 *~;
#X connect 0 0 14 0;
#X connect 0 0 10 0;
#X connect 0 0 9 0;
#X connect 0 0 16 0;
#X connect 2 0 12 1;
#X connect 2 0 16 1;
#X connect 2 0 14 1;
#X connect 8 0 9 1;
#X connect 8 1 10 1;
#X connect 9 0 15 0;
#X connect 10 0 13 0;
#X connect 11 0 12 0;
#X connect 12 0 13 1;
#X connect 12 0 15 1;
#X connect 13 0 5 0;
#X connect 14 0 5 0;
#X connect 15 0 4 0;
#X connect 16 0 4 0;
