#N canvas 230 50 1135 713 10;
#X obj 6 18 receive triggerIn;
#X obj 6 39 send triggerOut;
#X text 6 1 Bang test;
#X obj 123 18 receive floatIn;
#X obj 123 39 send floatOut;
#X text 124 3 Float test;
#X obj 227 18 receive stringIn;
#X obj 227 40 send stringOut;
#X text 227 2 Symbol test;
#X obj 5 75 receive listIn;
#X text 5 59 List test;
#X obj 5 96 send listOut;
#X obj 122 74 receive messageIn;
#X text 122 58 Message test;
#X obj 122 96 send messageOut;
#X obj 6 138 notein;
#X obj 6 161 noteout;
#X text 7 120 MIDI Note test;
#X obj 120 138 ctlin;
#X obj 120 161 ctlout;
#X text 119 120 MIDI CC test;
#X obj 214 139 pgmin;
#X obj 214 161 pgmout;
#X text 215 120 MIDI Program Change test;
#X obj 7 199 bendin;
#X obj 7 221 bendout;
#X text 7 181 MIDI Pitch Bend test;
#X obj 143 199 touchin;
#X obj 143 221 touchout;
#X text 143 181 MIDI Aftertouch test;
#X obj 8 258 polytouchin;
#X obj 8 280 polytouchout;
#X text 10 240 MIDI Poly Aftertouch test;
#X obj 181 257 midiin;
#X obj 181 335 midiout;
#X text 181 241 MIDI Byte test;
#X obj 270 314 midirealtimein;
#X text 270 297 MIDI Realtime test;
#X obj 229 281 sysexin;
#X text 230 264 MIDI Sysex test;
#N canvas 0 50 450 250 (subpatch) 0;
#X array TestArray 10 float 3;
#A 0 0 0 0 0 0 0 0 0 0 0;
#X coords 0 1 10 -1 200 140 1 0 0;
#X restore 338 149 graph;
#X connect 0 0 1 0;
#X connect 3 0 4 0;
#X connect 6 0 7 0;
#X connect 9 0 11 0;
#X connect 12 0 14 0;
#X connect 15 0 16 0;
#X connect 15 1 16 1;
#X connect 15 2 16 2;
#X connect 18 0 19 0;
#X connect 18 1 19 1;
#X connect 18 2 19 2;
#X connect 21 0 22 0;
#X connect 21 1 22 1;
#X connect 24 0 25 0;
#X connect 24 1 25 1;
#X connect 27 0 28 0;
#X connect 27 1 28 1;
#X connect 30 0 31 0;
#X connect 30 1 31 1;
#X connect 30 2 31 2;
#X connect 33 0 34 0;
#X connect 33 1 34 1;
#X connect 36 0 34 0;
#X connect 36 1 34 1;
#X connect 38 0 34 0;
#X connect 38 1 34 1;
