#N canvas 341 168 1056 729 10;
#X obj 97 78 r scaleRoot @hv_param 0 127 60;
#X obj 97 110 r modeIndex @hv_param 1 7 1;
#X msg 259 175 2 2 1 2 2 2 1;
#X obj 97 142 sel 1 2 3 4 5 6 7;
#X obj 103 301 delay 10;
#X obj 165 372 unpack f f f f f f f, f 28;
#X obj 96 402 +, f 5;
#X obj 136 402 +, f 5;
#X obj 172 402 +, f 5;
#X obj 210 402 +, f 5;
#X obj 248 402 +, f 5;
#X obj 285 402 +, f 5;
#X obj 324 402 +, f 5;
#X floatatom 63 473 5 0 0 0 - - -;
#X floatatom 334 473 5 0 0 0 - - -;
#X floatatom 102 473 5 0 0 0 - - -;
#X floatatom 141 473 5 0 0 0 - - -;
#X floatatom 295 473 5 0 0 0 - - -;
#X floatatom 180 473 5 0 0 0 - - -;
#X floatatom 217 473 5 0 0 0 - - -;
#X floatatom 257 473 5 0 0 0 - - -;
#X obj 711 386 r freq;
#X obj 897 394 r noteOn;
#X obj 936 448 bng 15 250 50 0 empty empty empty 17 7 0 10 -262144
-1 -1;
#X obj 936 473 delay 300;
#X obj 899 525 line~;
#X obj 833 552 *~;
#X obj 881 552 *~;
#X obj 833 641 dac~ 1 2;
#X msg 525 278 1;
#X obj 471 324 t b \$1 b;
#X obj 596 337 bng 15 250 50 0 empty empty empty 17 7 0 10 -262144
-1 -1;
#X obj 596 358 s noteOn;
#X msg 497 358 0;
#X msg 535 358 1;
#X obj 483 398 sel 1 2 3 4 5 6 7 8;
#X obj 422 516 spigot;
#X floatatom 422 547 5 0 0 0 - - -;
#X obj 422 577 mtof;
#X obj 422 608 s freq;
#X obj 458 223 r scaleDegree @hv_param 1 8 1;
#X msg 593 278 3;
#X msg 660 278 5;
#X msg 259 199 2 1 2 2 2 1 2;
#X msg 259 223 1 2 2 2 1 2 2;
#X msg 723 278 7;
#X msg 557 278 2;
#X msg 625 278 4;
#X msg 691 278 6;
#X msg 259 247 2 2 2 1 2 2 1;
#X msg 259 271 2 2 1 2 2 1 2;
#X msg 259 295 2 1 2 2 1 2 2;
#X msg 259 319 1 2 2 1 2 2 2;
#X text 354 174 Ionian;
#X text 354 199 Dorian;
#X text 354 224 Phrygian;
#X text 354 249 Lydian;
#X text 354 274 Mixo;
#X text 354 299 Aeolian;
#X text 354 324 Locrian;
#X text 759 277 Notes;
#X text 41 78 tonalité;
#X text 63 109 mode;
#X msg 71 353 60;
#X text 660 411 synth;
#X obj 284 132 loadbang;
#X msg 897 420 0.5 150;
#X text 744 601 Master Volume;
#X text 340 132 Initialise sur mode Ionien;
#X obj 846 600 *~ 5;
#X obj 376 35 r mode;
#X floatatom 401 87 5 0 0 0 - - -;
#X obj 577 141 r lead1;
#X obj 629 147 r lead2;
#X obj 670 130 r lead3;
#X obj 707 147 r lead4;
#X obj 748 133 r lead5;
#X obj 791 156 r lead6;
#X obj 818 135 r lead7;
#X msg 936 499 0 1020;
#X obj 711 410 synth_v2;
#X connect 0 0 63 0;
#X connect 1 0 3 0;
#X connect 2 0 4 0;
#X connect 2 0 5 0;
#X connect 3 0 2 0;
#X connect 3 1 43 0;
#X connect 3 2 44 0;
#X connect 3 3 49 0;
#X connect 3 4 50 0;
#X connect 3 5 51 0;
#X connect 3 6 52 0;
#X connect 4 0 63 0;
#X connect 5 0 6 1;
#X connect 5 1 7 1;
#X connect 5 2 8 1;
#X connect 5 3 9 1;
#X connect 5 4 10 1;
#X connect 5 5 11 1;
#X connect 5 6 12 1;
#X connect 6 0 7 0;
#X connect 6 0 15 0;
#X connect 7 0 8 0;
#X connect 7 0 16 0;
#X connect 8 0 9 0;
#X connect 8 0 18 0;
#X connect 9 0 10 0;
#X connect 9 0 19 0;
#X connect 10 0 11 0;
#X connect 10 0 20 0;
#X connect 11 0 12 0;
#X connect 11 0 17 0;
#X connect 12 0 14 0;
#X connect 13 0 36 0;
#X connect 14 0 36 0;
#X connect 15 0 36 0;
#X connect 16 0 36 0;
#X connect 17 0 36 0;
#X connect 18 0 36 0;
#X connect 19 0 36 0;
#X connect 20 0 36 0;
#X connect 21 0 80 0;
#X connect 22 0 66 0;
#X connect 23 0 24 0;
#X connect 24 0 79 0;
#X connect 25 0 27 1;
#X connect 25 0 26 1;
#X connect 26 0 69 0;
#X connect 27 0 69 0;
#X connect 29 0 30 0;
#X connect 29 0 31 0;
#X connect 30 0 33 0;
#X connect 30 1 35 0;
#X connect 30 2 34 0;
#X connect 31 0 32 0;
#X connect 33 0 36 1;
#X connect 34 0 36 1;
#X connect 35 0 13 0;
#X connect 35 1 15 0;
#X connect 35 2 16 0;
#X connect 35 3 18 0;
#X connect 35 4 19 0;
#X connect 35 5 20 0;
#X connect 35 6 17 0;
#X connect 35 7 14 0;
#X connect 36 0 37 0;
#X connect 37 0 38 0;
#X connect 38 0 39 0;
#X connect 40 0 31 0;
#X connect 40 0 30 0;
#X connect 41 0 31 0;
#X connect 41 0 30 0;
#X connect 42 0 31 0;
#X connect 42 0 30 0;
#X connect 43 0 4 0;
#X connect 43 0 5 0;
#X connect 44 0 4 0;
#X connect 44 0 5 0;
#X connect 45 0 30 0;
#X connect 45 0 31 0;
#X connect 46 0 30 0;
#X connect 46 0 31 0;
#X connect 47 0 30 0;
#X connect 47 0 31 0;
#X connect 48 0 30 0;
#X connect 48 0 31 0;
#X connect 49 0 5 0;
#X connect 49 0 4 0;
#X connect 50 0 4 0;
#X connect 50 0 5 0;
#X connect 51 0 4 0;
#X connect 51 0 5 0;
#X connect 52 0 4 0;
#X connect 52 0 5 0;
#X connect 63 0 6 0;
#X connect 63 0 13 0;
#X connect 65 0 43 0;
#X connect 66 0 23 0;
#X connect 66 0 25 0;
#X connect 69 0 28 0;
#X connect 69 0 28 1;
#X connect 70 0 71 0;
#X connect 71 0 3 0;
#X connect 72 0 29 0;
#X connect 73 0 46 0;
#X connect 74 0 41 0;
#X connect 75 0 47 0;
#X connect 76 0 42 0;
#X connect 77 0 48 0;
#X connect 78 0 45 0;
#X connect 79 0 25 0;
#X connect 80 0 26 0;
#X connect 80 0 27 0;
