#N canvas 17 39 593 562 10;
#X obj 7 7 inlet;
#X obj 395 464 outlet~;
#X obj 228 225 lpg;
#X obj 239 331 mono-pureverb;
#X obj 243 116 wavefold;
#X obj 243 11 syn-classicsynth;
#X connect 0 0 5 0;
#X connect 2 0 3 0;
#X connect 3 0 1 0;
#X connect 4 0 2 0;
#X connect 5 0 4 0;
