#N canvas -9 -9 1920 988 10;
#X obj 7 7 inlet;
#X obj 247 15 syn-stringsynth;
#X obj 94 326 mono-pureverb;
#X obj 395 464 outlet~;
#X obj 95 236 st-lowpass;
#X connect 0 0 1 0;
#X connect 1 0 4 0;
#X connect 2 0 3 0;
#X connect 4 0 2 0;
