#N canvas -8 -8 1920 1007 10;
#X obj 103 127 cnv 5 5 5 empty empty TRIGGER 0 0 0 12 -262144 -66577
0;
#X obj 185 127 cnv 5 5 5 empty \$0-instance-num 1 0 0 0 12 -262144
-66577 0;
#X obj 158 127 cnv 5 5 5 empty empty SEQ 0 0 0 12 -262144 -66577 0
;
#X obj 103 154 tgl 15 1 \$0-trigger-seq-s1-s \$0-trigger-seq-s1-r empty
0 25 0 10 -191407 -1 -1 1 1;
#X obj 118 154 tgl 15 1 \$0-trigger-seq-s2-s \$0-trigger-seq-s2-r empty
17 7 0 10 -262144 -1 -1 0 1;
#X obj 133 154 tgl 15 1 \$0-trigger-seq-s3-s \$0-trigger-seq-s3-r empty
17 7 0 10 -262144 -1 -1 0 1;
#X obj 148 154 tgl 15 1 \$0-trigger-seq-s4-s \$0-trigger-seq-s4-r empty
17 7 0 10 -262144 -1 -1 0 1;
#X obj 163 154 tgl 15 1 \$0-trigger-seq-s5-s \$0-trigger-seq-s5-r empty
4 25 0 10 -191407 -1 -1 0 1;
#X obj 178 154 tgl 15 1 \$0-trigger-seq-s6-s \$0-trigger-seq-s6-r empty
17 7 0 10 -262144 -1 -1 0 1;
#X obj 193 154 tgl 15 1 \$0-trigger-seq-s7-s \$0-trigger-seq-s7-r empty
17 7 0 10 -262144 -1 -1 0 1;
#X obj 208 154 tgl 15 1 \$0-trigger-seq-s8-s \$0-trigger-seq-s8-r empty
17 7 0 10 -262144 -1 -1 0 1;
#X obj 223 154 tgl 15 1 \$0-trigger-seq-s9-s \$0-trigger-seq-s9-r empty
4 25 0 10 -191407 -1 -1 1 1;
#X obj 238 154 tgl 15 1 \$0-trigger-seq-s10-s \$0-trigger-seq-s10-r
empty 17 7 0 10 -262144 -1 -1 0 1;
#X obj 253 154 tgl 15 1 \$0-trigger-seq-s11-s \$0-trigger-seq-s11-r
empty 17 7 0 10 -262144 -1 -1 0 1;
#X obj 268 154 tgl 15 1 \$0-trigger-seq-s12-s \$0-trigger-seq-s12-r
empty 17 7 0 10 -262144 -1 -1 1 1;
#X obj 283 154 tgl 15 1 \$0-trigger-seq-s13-s \$0-trigger-seq-s13-r
empty 4 25 0 10 -191407 -1 -1 0 1;
#X obj 298 154 tgl 15 1 \$0-trigger-seq-s14-s \$0-trigger-seq-s14-r
empty 17 7 0 10 -262144 -1 -1 0 1;
#X obj 313 154 tgl 15 1 \$0-trigger-seq-s15-s \$0-trigger-seq-s15-r
empty 17 7 0 10 -262144 -1 -1 1 1;
#X obj 328 154 tgl 15 1 \$0-trigger-seq-s16-s \$0-trigger-seq-s16-r
empty 17 7 0 10 -262144 -1 -1 1 1;
#X obj 103 139 hradio 15 1 0 16 \$0-trigger-seq-gui-s \$0-trigger-seq-gui-r
empty 0 -8 0 10 -262144 -226533 -1 6;
#X obj 448 93 inlet~;
#X obj 448 137 f;
#X obj 479 138 + 1;
#X floatatom 448 181 5 0 0 0 - - -;
#X obj 448 200 t f f;
#X obj 475 228 s \$0-trigger-seq-gui-r;
#X obj 775 255 sel 0 1 2 3 4 5 6 7 8 9 10 11 12 13 14 15, f 44;
#X obj 107 877 t b b;
#X obj 329 991 vline~;
#X obj 197 843 r \$0-trigger-seq-s2-s;
#X obj 100 953 spigot;
#X obj 133 925 r \$0-trigger-seq-s1-s;
#X msg 329 970 1 0 \, 0 1 1;
#X obj 164 870 spigot;
#X obj 216 818 spigot;
#X obj 249 788 r \$0-trigger-seq-s3-s;
#X obj 289 763 spigot;
#X obj 322 733 r \$0-trigger-seq-s4-s;
#X obj 337 932 spigot;
#X obj 370 902 r \$0-trigger-seq-s5-s;
#X obj 388 867 spigot;
#X obj 421 837 r \$0-trigger-seq-s6-s;
#X obj 437 805 spigot;
#X obj 470 775 r \$0-trigger-seq-s7-s;
#X obj 467 750 spigot;
#X obj 500 720 r \$0-trigger-seq-s8-s;
#X obj 488 934 spigot;
#X obj 521 904 r \$0-trigger-seq-s9-s;
#X obj 535 879 spigot;
#X obj 568 849 r \$0-trigger-seq-s10-s;
#X obj 582 818 spigot;
#X obj 615 789 r \$0-trigger-seq-s11-s;
#X obj 616 762 spigot;
#X obj 649 733 r \$0-trigger-seq-s12-s;
#X obj 571 695 spigot;
#X obj 604 666 r \$0-trigger-seq-s13-s;
#X obj 629 953 spigot;
#X obj 662 924 r \$0-trigger-seq-s14-s;
#X obj 667 899 spigot;
#X obj 700 870 r \$0-trigger-seq-s15-s;
#X obj 730 845 spigot;
#X obj 763 816 r \$0-trigger-seq-s16-s;
#X obj 584 142 f;
#X obj 584 61 r \$0-trigger-seq-sos!;
#X obj 1511 607 hradio 15 1 1 16 \$0-trigger-seq-num-of-steps-s \$0-trigger-seq-num-of-steps-r
NUMBER-OF-STEPS 0 -8 0 10 -262144 -1 -1 0;
#X obj 599 95 r \$0-trigger-seq-num-of-steps-s;
#X obj 599 117 + 1;
#X obj 107 214 bng 15 100 50 0 empty empty empty 17 7 0 10 -262144
-226533 -1;
#X obj 93 604 t b;
#X obj 282 216 hradio 15 1 1 4 \$0-trigger-seq-load-s \$0-trigger-seq-load-r
LOAD 0 -8 0 10 -262144 -1 -1 0;
#X obj 209 216 hradio 15 1 0 4 \$0-trigger-seq-store-s \$0-trigger-seq-store-r
STORE 0 -8 0 10 -262144 -1 -1 0;
#N canvas 287 56 1008 752 store/load 0;
#X obj 290 212 pack f f;
#X obj 305 133 loadbang;
#X obj 305 155 f \$1;
#X obj 290 184 f;
#X obj 292 453 textfile;
#X msg 475 436 rewind;
#X obj 165 78 loadbang;
#X obj 19 174 delay 10;
#X text 59 52 WRITE;
#X obj 19 54 inlet;
#X obj 19 208 f;
#X obj 19 247 pack f f;
#X obj 165 126 t f f;
#X obj 165 104 f \$1;
#X msg -193 97 bang;
#X obj 22 597 textfile;
#X msg 97 236 clear;
#X obj 19 118 t b f b b;
#X obj 308 21 inlet;
#X text 353 19 LOAD;
#X msg 399 415 bang;
#X obj 412 375 t b b;
#X obj 308 43 t b f;
#X obj 290 90 t b b;
#X obj -412 344 f;
#N canvas 0 22 1084 659 unpack-values 0;
#X obj 182 32 inlet;
#X obj 181 578 s \$0-trigger-seq-s1-r;
#X obj 194 557 s \$0-trigger-seq-s2-r;
#X obj 211 531 s \$0-trigger-seq-s3-r;
#X obj 224 510 s \$0-trigger-seq-s4-r;
#X obj 238 485 s \$0-trigger-seq-s5-r;
#X obj 251 464 s \$0-trigger-seq-s6-r;
#X obj 268 438 s \$0-trigger-seq-s7-r;
#X obj 281 417 s \$0-trigger-seq-s8-r;
#X obj 298 394 s \$0-trigger-seq-s9-r;
#X obj 311 373 s \$0-trigger-seq-s10-r;
#X obj 328 347 s \$0-trigger-seq-s11-r;
#X obj 341 326 s \$0-trigger-seq-s12-r;
#X obj 355 301 s \$0-trigger-seq-s13-r;
#X obj 368 280 s \$0-trigger-seq-s14-r;
#X obj 385 254 s \$0-trigger-seq-s15-r;
#X obj 398 233 s \$0-trigger-seq-s16-r;
#X obj 416 199 s \$0-trigger-seq-num-of-steps-r;
#X obj 182 59 unpack f f f f f f f f f f f f f f f f f f;
#X obj 469 118 s \$0-trigger-seq-load-r;
#X connect 0 0 18 0;
#X connect 18 0 1 0;
#X connect 18 1 2 0;
#X connect 18 2 3 0;
#X connect 18 3 4 0;
#X connect 18 4 5 0;
#X connect 18 5 6 0;
#X connect 18 6 7 0;
#X connect 18 7 8 0;
#X connect 18 8 9 0;
#X connect 18 9 10 0;
#X connect 18 10 11 0;
#X connect 18 11 12 0;
#X connect 18 12 13 0;
#X connect 18 13 14 0;
#X connect 18 14 15 0;
#X connect 18 15 16 0;
#X connect 18 16 17 0;
#X restore 292 479 pd unpack-values;
#X obj -400 14 r \$0-trigger-seq-s1-s;
#X obj -387 44 r \$0-trigger-seq-s2-s;
#X obj -371 64 r \$0-trigger-seq-s3-s;
#X obj -355 84 r \$0-trigger-seq-s4-s;
#X obj -337 103 r \$0-trigger-seq-s5-s;
#X obj -321 123 r \$0-trigger-seq-s6-s;
#X obj -305 143 r \$0-trigger-seq-s7-s;
#X obj -284 166 r \$0-trigger-seq-s8-s;
#X obj -264 195 r \$0-trigger-seq-s9-s;
#X obj -248 215 r \$0-trigger-seq-s10-s;
#X obj -232 235 r \$0-trigger-seq-s11-s;
#X obj -216 255 r \$0-trigger-seq-s12-s;
#X obj -198 274 r \$0-trigger-seq-s13-s;
#X obj -182 294 r \$0-trigger-seq-s14-s;
#X obj -166 314 r \$0-trigger-seq-s15-s;
#X obj -150 334 r \$0-trigger-seq-s16-s;
#X obj -132 357 r \$0-trigger-seq-num-of-steps-s;
#X msg 19 329 write statesave/\$1-trigger-seq-\$2-ss.txt;
#X msg 291 297 read statesave/\$1-trigger-seq-\$2-ss.txt;
#X obj -377 481 pack f f f f f f f f f f f f f f f f f f;
#X msg -378 522 set \$1 \$2 \$3 \$4 \$5 \$6 \$7 \$8 \$9 \$10 \$11 \$12
\$13 \$14 \$15 \$16 \$17 \$18;
#X obj -91 400 r \$0-trigger-seq-load-s;
#X obj 308 67 delay 100;
#X connect 0 0 44 0;
#X connect 1 0 2 0;
#X connect 2 0 3 1;
#X connect 3 0 0 0;
#X connect 4 0 25 0;
#X connect 5 0 4 0;
#X connect 6 0 13 0;
#X connect 7 0 10 0;
#X connect 9 0 17 0;
#X connect 10 0 11 0;
#X connect 11 0 43 0;
#X connect 12 0 10 1;
#X connect 13 0 12 0;
#X connect 14 0 24 0;
#X connect 16 0 15 0;
#X connect 17 0 7 0;
#X connect 17 1 11 1;
#X connect 17 2 14 0;
#X connect 17 3 16 0;
#X connect 18 0 22 0;
#X connect 20 0 4 0;
#X connect 21 0 20 0;
#X connect 21 1 5 0;
#X connect 22 0 48 0;
#X connect 22 1 0 1;
#X connect 23 0 21 0;
#X connect 23 1 3 0;
#X connect 24 0 45 0;
#X connect 26 0 24 1;
#X connect 27 0 45 1;
#X connect 28 0 45 2;
#X connect 29 0 45 3;
#X connect 30 0 45 4;
#X connect 31 0 45 5;
#X connect 32 0 45 6;
#X connect 33 0 45 7;
#X connect 34 0 45 8;
#X connect 35 0 45 9;
#X connect 36 0 45 10;
#X connect 37 0 45 11;
#X connect 38 0 45 12;
#X connect 39 0 45 13;
#X connect 40 0 45 14;
#X connect 41 0 45 15;
#X connect 42 0 45 16;
#X connect 43 0 15 0;
#X connect 44 0 4 0;
#X connect 45 0 46 0;
#X connect 46 0 15 0;
#X connect 47 0 45 17;
#X connect 48 0 23 0;
#X restore 102 77 pd store/load;
#X obj 102 25 r \$0-trigger-seq-store-s;
#X obj 177 49 r \$0-trigger-seq-load-s;
#X obj 103 111 cnv 5 5 5 empty empty CLOCK-IN 0 0 0 8 -262144 -226533
0;
#X obj 203 108 cnv 5 5 5 empty empty LOAD(1-4) 0 0 0 8 -262144 -226533
0;
#X obj 323 108 cnv 5 5 5 empty empty RESET 0 0 0 8 -262144 -226533
0;
#X obj 1307 91 inlet~;
#X obj 1640 195 inlet~;
#X obj 1640 217 threshold~ 0.99 0 1 0;
#X obj 1640 239 t b b;
#X msg 1640 261 0;
#X obj 323 113 bng 15 100 50 0 empty empty empty 17 7 0 10 -262144
-226533 -1;
#X obj 1307 190 t b b;
#X text 1300 71 LOAD(1-4) seq. scan;
#X text 1635 164 RESET INPUT;
#X obj 216 114 bng 15 100 50 0 empty empty empty 17 7 0 10 -262144
-226533 -1;
#X obj 1307 227 f;
#X obj 1341 227 + 1;
#X obj 1307 256 mod 4;
#X obj 1305 302 s \$0-trigger-seq-load-r;
#X obj 108 -170 s \$0-instance-num;
#X obj 107 -249 makefilename %d;
#X msg 107 -224 label \$1;
#X obj 107 -293 f \$1;
#X obj 107 -333 loadbang;
#X obj 710 821 t b b;
#X obj 1695 262 loadbang;
#X floatatom 1354 273 5 0 0 0 - - -;
#X obj 1307 126 threshold~ 1 0 1 0;
#X obj 1496 423 r \$0-trigger-seq-load-s;
#X obj 1481 455 f;
#X obj 1481 393 r SAVE-S;
#X obj 1481 477 s \$0-trigger-seq-store-r;
#N canvas 297 144 447 447 avoid-load-textfile-clicks 0;
#X obj 159 135 loadbang;
#X obj 159 157 t b b;
#X msg 159 179 127 100;
#X obj 159 226 line;
#X obj 236 174 delay 110;
#X msg 236 198 0 100;
#X obj 162 250 hsl 128 15 0 127 0 0 empty empty empty -2 -8 0 10 -262144
-1 -1 0 1;
#X obj 159 270 / 127;
#X obj 159 292 * 4;
#X obj 159 314 i;
#X obj 159 336 s \$0-trigger-seq-load-r;
#X connect 0 0 1 0;
#X connect 1 0 2 0;
#X connect 1 1 4 0;
#X connect 2 0 3 0;
#X connect 3 0 6 0;
#X connect 4 0 5 0;
#X connect 5 0 3 0;
#X connect 6 0 7 0;
#X connect 7 0 8 0;
#X connect 8 0 9 0;
#X connect 9 0 10 0;
#X restore 329 46 pd avoid-load-textfile-clicks;
#X obj 597 171 loadbang;
#X msg 597 193 0;
#X obj 448 115 threshold~ 0.9 0 0.9 0;
#X obj 1488 542 s \$0-trigger-seq-sos!;
#X obj 103 169 tgl 15 1 \$0-trigger-seq2-s1-s \$0-trigger-seq2-s1-r
empty 0 25 0 10 -191407 -1 -1 0 1;
#X obj 118 169 tgl 15 1 \$0-trigger-seq2-s2-s \$0-trigger-seq2-s2-r
empty 17 7 0 10 -262144 -1 -1 0 1;
#X obj 133 169 tgl 15 1 \$0-trigger-seq2-s3-s \$0-trigger-seq2-s3-r
empty 17 7 0 10 -262144 -1 -1 1 1;
#X obj 148 169 tgl 15 1 \$0-trigger-seq2-s4-s \$0-trigger-seq2-s4-r
empty 17 7 0 10 -262144 -1 -1 0 1;
#X obj 163 169 tgl 15 1 \$0-trigger-seq2-s5-s \$0-trigger-seq2-s5-r
empty 4 25 0 10 -191407 -1 -1 0 1;
#X obj 178 169 tgl 15 1 \$0-trigger-seq2-s6-s \$0-trigger-seq2-s6-r
empty 17 7 0 10 -262144 -1 -1 0 1;
#X obj 193 169 tgl 15 1 \$0-trigger-seq2-s7-s \$0-trigger-seq2-s7-r
empty 17 7 0 10 -262144 -1 -1 0 1;
#X obj 208 169 tgl 15 1 \$0-trigger-seq2-s8-s \$0-trigger-seq2-s8-r
empty 17 7 0 10 -262144 -1 -1 0 1;
#X obj 223 169 tgl 15 1 \$0-trigger-seq2-s9-s \$0-trigger-seq2-s9-r
empty 4 25 0 10 -191407 -1 -1 0 1;
#X obj 238 169 tgl 15 1 \$0-trigger-seq2-s10-s \$0-trigger-seq2-s10-r
empty 17 7 0 10 -262144 -1 -1 1 1;
#X obj 253 169 tgl 15 1 \$0-trigger-seq2-s11-s \$0-trigger-seq2-s11-r
empty 17 7 0 10 -262144 -1 -1 0 1;
#X obj 268 169 tgl 15 1 \$0-trigger-seq2-s12-s \$0-trigger-seq2-s12-r
empty 17 7 0 10 -262144 -1 -1 0 1;
#X obj 283 169 tgl 15 1 \$0-trigger-seq2-s13-s \$0-trigger-seq2-s13-r
empty 4 25 0 10 -191407 -1 -1 1 1;
#X obj 298 169 tgl 15 1 \$0-trigger-seq2-s14-s \$0-trigger-seq2-s14-r
empty 17 7 0 10 -262144 -1 -1 0 1;
#X obj 313 169 tgl 15 1 \$0-trigger-seq2-s15-s \$0-trigger-seq2-s15-r
empty 17 7 0 10 -262144 -1 -1 0 1;
#X obj 328 169 tgl 15 1 \$0-trigger-seq2-s16-s \$0-trigger-seq2-s16-r
empty 17 7 0 10 -262144 -1 -1 0 1;
#X obj 273 1057 outlet~ 1L;
#X obj 1064 -158 t b b;
#X obj 1286 -44 vline~;
#X obj 1057 -82 spigot;
#X msg 1286 -65 1 0 \, 0 1 1;
#X obj 1121 -165 spigot;
#X obj 1173 -217 spigot;
#X obj 1246 -272 spigot;
#X obj 1294 -103 spigot;
#X obj 1345 -168 spigot;
#X obj 1394 -230 spigot;
#X obj 1424 -285 spigot;
#X obj 1445 -101 spigot;
#X obj 1492 -156 spigot;
#X obj 1539 -217 spigot;
#X obj 1573 -273 spigot;
#X obj 1528 -340 spigot;
#X obj 1586 -82 spigot;
#X obj 1624 -136 spigot;
#X obj 1687 -190 spigot;
#X obj 1667 -214 t b b;
#X obj 1347 21 outlet~ 2L;
#X obj 1279 -302 r \$0-trigger-seq2-s4-s;
#X obj 1206 -247 r \$0-trigger-seq2-s3-s;
#X obj 1154 -192 r \$0-trigger-seq2-s2-s;
#X obj 1090 -110 r \$0-trigger-seq2-s1-s;
#X obj 1327 -133 r \$0-trigger-seq2-s5-s;
#X obj 1378 -198 r \$0-trigger-seq2-s6-s;
#X obj 1427 -260 r \$0-trigger-seq2-s7-s;
#X obj 1457 -315 r \$0-trigger-seq2-s8-s;
#X obj 1606 -302 r \$0-trigger-seq2-s12-s;
#X obj 1572 -246 r \$0-trigger-seq2-s11-s;
#X obj 1523 -186 r \$0-trigger-seq2-s10-s;
#X obj 1478 -131 r \$0-trigger-seq2-s9-s;
#X obj 1619 -111 r \$0-trigger-seq2-s14-s;
#X obj 1657 -165 r \$0-trigger-seq2-s15-s;
#X obj 1720 -219 r \$0-trigger-seq2-s16-s;
#X obj 1561 -369 r \$0-trigger-seq2-s13-s;
#X obj -1186 626 r seq1_toggle_1;
#X obj -1160 664 r seq1_toggle_2;
#X obj -1070 627 r seq1_toggle_3;
#X obj -1045 662 r seq1_toggle_4;
#X obj -952 623 r seq1_toggle_5;
#X obj -926 661 r seq1_toggle_6;
#X obj -837 621 r seq1_toggle_7;
#X obj -811 658 r seq1_toggle_8;
#X obj -728 624 r seq1_toggle_9;
#X obj -702 661 r seq1_toggle_10;
#X obj -608 622 r seq1_toggle_11;
#X obj -582 660 r seq1_toggle_12;
#X obj -489 621 r seq1_toggle_13;
#X obj -463 659 r seq1_toggle_14;
#X obj -366 618 r seq1_toggle_15;
#X obj -348 658 r seq1_toggle_16;
#X obj -1172 728 r seq2_toggle_1;
#X obj -1146 766 r seq2_toggle_2;
#X obj -1054 729 r seq2_toggle_3;
#X obj -1031 764 r seq2_toggle_4;
#X obj -938 725 r seq2_toggle_5;
#X obj -912 763 r seq2_toggle_6;
#X obj -823 723 r seq2_toggle_7;
#X obj -799 760 r seq2_toggle_8;
#X obj -714 726 r seq2_toggle_9;
#X obj -688 763 r seq2_toggle_10;
#X obj -594 724 r seq2_toggle_11;
#X obj -570 762 r seq2_toggle_12;
#X obj -475 723 r seq2_toggle_13;
#X obj -449 761 r seq2_toggle_14;
#X obj -352 720 r seq2_toggle_15;
#X obj -335 760 r seq2_toggle_16;
#X obj 103 184 tgl 15 1 \$0-trigger-seq3-s1-s \$0-trigger-seq3-s1-r
empty 0 25 0 10 -191407 -1 -1 0 1;
#X obj 118 184 tgl 15 1 \$0-trigger-seq3-s2-s \$0-trigger-seq3-s2-r
empty 17 7 0 10 -262144 -1 -1 0 1;
#X obj 133 184 tgl 15 1 \$0-trigger-seq3-s3-s \$0-trigger-seq3-s3-r
empty 17 7 0 10 -262144 -1 -1 0 1;
#X obj 148 184 tgl 15 1 \$0-trigger-seq3-s4-s \$0-trigger-seq3-s4-r
empty 17 7 0 10 -262144 -1 -1 0 1;
#X obj 163 184 tgl 15 1 \$0-trigger-seq3-s5-s \$0-trigger-seq3-s5-r
empty 4 25 0 10 -191407 -1 -1 1 1;
#X obj 178 184 tgl 15 1 \$0-trigger-seq3-s6-s \$0-trigger-seq3-s6-r
empty 17 7 0 10 -262144 -1 -1 0 1;
#X obj 193 184 tgl 15 1 \$0-trigger-seq3-s7-s \$0-trigger-seq3-s7-r
empty 17 7 0 10 -262144 -1 -1 0 1;
#X obj 208 184 tgl 15 1 \$0-trigger-seq3-s8-s \$0-trigger-seq3-s8-r
empty 17 7 0 10 -262144 -1 -1 0 1;
#X obj 223 184 tgl 15 1 \$0-trigger-seq-s9-s \$0-trigger-seq-s9-r empty
4 25 0 10 -191407 -1 -1 1 1;
#X obj 238 184 tgl 15 1 \$0-trigger-seq-s10-s \$0-trigger-seq-s10-r
empty 17 7 0 10 -262144 -1 -1 0 1;
#X obj 253 184 tgl 15 1 \$0-trigger-seq-s11-s \$0-trigger-seq-s11-r
empty 17 7 0 10 -262144 -1 -1 1 1;
#X obj 268 184 tgl 15 1 \$0-trigger-seq-s12-s \$0-trigger-seq-s12-r
empty 17 7 0 10 -262144 -1 -1 0 1;
#X obj 283 184 tgl 15 1 \$0-trigger-seq-s13-s \$0-trigger-seq-s13-r
empty 4 25 0 10 -191407 -1 -1 1 1;
#X obj 298 184 tgl 15 1 \$0-trigger-seq-s14-s \$0-trigger-seq-s14-r
empty 17 7 0 10 -262144 -1 -1 0 1;
#X obj 313 184 tgl 15 1 \$0-trigger-seq-s15-s \$0-trigger-seq-s15-r
empty 17 7 0 10 -262144 -1 -1 1 1;
#X obj 328 184 tgl 15 1 \$0-trigger-seq-s16-s \$0-trigger-seq-s16-r
empty 17 7 0 10 -262144 -1 -1 0 1;
#X obj 1075 897 t b b;
#X obj 1297 1011 vline~;
#X obj 1068 973 spigot;
#X msg 1297 990 1 0 \, 0 1 1;
#X obj 1132 890 spigot;
#X obj 1184 838 spigot;
#X obj 1257 783 spigot;
#X obj 1305 952 spigot;
#X obj 1356 887 spigot;
#X obj 1405 825 spigot;
#X obj 1435 770 spigot;
#X obj 1456 954 spigot;
#X obj 1503 899 spigot;
#X obj 1550 838 spigot;
#X obj 1584 782 spigot;
#X obj 1539 715 spigot;
#X obj 1597 973 spigot;
#X obj 1635 919 spigot;
#X obj 1698 865 spigot;
#X obj 1678 841 t b b;
#X obj 1101 945 r \$0-trigger-seq3-s1-s;
#X obj 1165 863 r \$0-trigger-seq3-s2-s;
#X obj 1217 808 r \$0-trigger-seq3-s3-s;
#X obj 1290 753 r \$0-trigger-seq3-s4-s;
#X obj 1338 922 r \$0-trigger-seq3-s5-s;
#X obj 1389 857 r \$0-trigger-seq3-s6-s;
#X obj 1438 795 r \$0-trigger-seq3-s7-s;
#X obj 1468 740 r \$0-trigger-seq3-s8-s;
#X obj 1572 686 r \$0-trigger-seq3-s13-s;
#X obj 1617 753 r \$0-trigger-seq3-s12-s;
#X obj 1583 809 r \$0-trigger-seq3-s11-s;
#X obj 1534 869 r \$0-trigger-seq3-s10-s;
#X obj 1489 924 r \$0-trigger-seq3-s9-s;
#X obj 1731 836 r \$0-trigger-seq3-s16-s;
#X obj 1668 890 r \$0-trigger-seq3-s15-s;
#X obj 1630 944 r \$0-trigger-seq3-s14-s;
#X obj -1184 819 r seq3_toggle_1;
#X obj -1158 857 r seq3_toggle_2;
#X obj -1066 820 r seq3_toggle_3;
#X obj -1044 852 r seq3_toggle_4;
#X obj -950 816 r seq3_toggle_5;
#X obj -924 854 r seq3_toggle_6;
#X obj -835 814 r seq3_toggle_7;
#X obj -811 851 r seq3_toggle_8;
#X obj -726 817 r seq3_toggle_9;
#X obj -699 854 r seq3_toggle_10;
#X obj -606 815 r seq3_toggle_11;
#X obj -582 853 r seq3_toggle_12;
#X obj -487 814 r seq3_toggle_13;
#X obj -465 856 r seq3_toggle_14;
#X obj -364 811 r seq3_toggle_15;
#X obj -347 851 r seq3_toggle_16;
#X text 456 -126 Mettre sur 4 \, 8 ou 16 selon les besoins;
#X obj 1358 1076 outlet~ 3L;
#X obj 103 199 tgl 15 1 \$0-trigger-seq4-s1-s \$0-trigger-seq4-s1-r
empty 0 25 0 10 -191407 -1 -1 0 1;
#X obj 118 199 tgl 15 1 \$0-trigger-seq4-s2-s \$0-trigger-seq4-s2-r
empty 17 7 0 10 -262144 -1 -1 0 1;
#X obj 133 199 tgl 15 1 \$0-trigger-seq4-s3-s \$0-trigger-seq4-s3-r
empty 17 7 0 10 -262144 -1 -1 0 1;
#X obj 148 199 tgl 15 1 \$0-trigger-seq4-s4-s \$0-trigger-seq4-s4-r
empty 17 7 0 10 -262144 -1 -1 0 1;
#X obj 163 199 tgl 15 1 \$0-trigger-seq4-s5-s \$0-trigger-seq4-s5-r
empty 4 25 0 10 -191407 -1 -1 0 1;
#X obj 178 199 tgl 15 1 \$0-trigger-seq4-s6-s \$0-trigger-seq4-s6-r
empty 17 7 0 10 -262144 -1 -1 0 1;
#X obj 193 199 tgl 15 1 \$0-trigger-seq4-s7-s \$0-trigger-seq4-s7-r
empty 17 7 0 10 -262144 -1 -1 1 1;
#X obj 208 199 tgl 15 1 \$0-trigger-seq4-s8-s \$0-trigger-seq4-s8-r
empty 17 7 0 10 -262144 -1 -1 0 1;
#X obj 223 199 tgl 15 1 \$0-trigger-seq4-s9-s \$0-trigger-seq4-s9-r
empty 4 25 0 10 -191407 -1 -1 1 1;
#X obj 238 199 tgl 15 1 \$0-trigger-seq4-s10-s \$0-trigger-seq4-s10-r
empty 17 7 0 10 -262144 -1 -1 1 1;
#X obj 253 199 tgl 15 1 \$0-trigger-seq4-s11-s \$0-trigger-seq4-s11-r
empty 17 7 0 10 -262144 -1 -1 0 1;
#X obj 268 199 tgl 15 1 \$0-trigger-seq4-s12-s \$0-trigger-seq4-s12-r
empty 17 7 0 10 -262144 -1 -1 0 1;
#X obj 283 199 tgl 15 1 \$0-trigger-seq4-s13-s \$0-trigger-seq4-s13-r
empty 4 25 0 10 -191407 -1 -1 0 1;
#X obj 298 199 tgl 15 1 \$0-trigger-seq4-s14-s \$0-trigger-seq4-s14-r
empty 17 7 0 10 -262144 -1 -1 1 1;
#X obj 313 199 tgl 15 1 \$0-trigger-seq4-s15-s \$0-trigger-seq4-s15-r
empty 17 7 0 10 -262144 -1 -1 0 1;
#X obj 328 199 tgl 15 1 \$0-trigger-seq4-s16-s \$0-trigger-seq4-s16-r
empty 17 7 0 10 -262144 -1 -1 0 1;
#X obj 2052 276 t b b;
#X obj 2274 269 vline~;
#X obj 2045 231 spigot;
#X msg 2274 248 1 0 \, 0 1 1;
#X obj 2109 148 spigot;
#X obj 2161 96 spigot;
#X obj 2234 41 spigot;
#X obj 2282 210 spigot;
#X obj 2333 145 spigot;
#X obj 2382 83 spigot;
#X obj 2412 28 spigot;
#X obj 2433 212 spigot;
#X obj 2480 157 spigot;
#X obj 2527 96 spigot;
#X obj 2561 40 spigot;
#X obj 2516 -27 spigot;
#X obj 2574 231 spigot;
#X obj 2607 202 r \$0-trigger-seq-s14-s;
#X obj 2612 177 spigot;
#X obj 2675 123 spigot;
#X obj 2655 99 t b b;
#X obj 2078 203 r \$0-trigger-seq4-s1-s;
#X obj 2142 121 r \$0-trigger-seq4-s2-s;
#X obj 2194 66 r \$0-trigger-seq4-s3-s;
#X obj 2267 11 r \$0-trigger-seq4-s4-s;
#X obj 2315 179 r \$0-trigger-seq4-s5-s;
#X obj 2366 115 r \$0-trigger-seq4-s6-s;
#X obj 2415 53 r \$0-trigger-seq4-s7-s;
#X obj 2445 -1 r \$0-trigger-seq4-s8-s;
#X obj 2549 -56 r \$0-trigger-seq4-s13-s;
#X obj 2594 11 r \$0-trigger-seq4-s12-s;
#X obj 2560 67 r \$0-trigger-seq4-s11-s;
#X obj 2513 127 r \$0-trigger-seq4-s10-s;
#X obj 2466 182 r \$0-trigger-seq4-s9-s;
#X obj 2708 94 r \$0-trigger-seq4-s16-s;
#X obj 2645 148 r \$0-trigger-seq4-s15-s;
#X obj 2334 441 outlet~ 4L;
#X obj 546 -104 % 8;
#X connect 20 0 107 0;
#X connect 21 0 22 0;
#X connect 21 0 318 0;
#X connect 22 0 21 1;
#X connect 23 0 24 0;
#X connect 24 0 26 0;
#X connect 24 1 25 0;
#X connect 26 0 27 0;
#X connect 26 0 126 0;
#X connect 26 0 211 0;
#X connect 26 0 281 0;
#X connect 26 1 33 0;
#X connect 26 1 130 0;
#X connect 26 1 215 0;
#X connect 26 1 285 0;
#X connect 26 2 34 0;
#X connect 26 2 131 0;
#X connect 26 2 216 0;
#X connect 26 2 286 0;
#X connect 26 3 36 0;
#X connect 26 3 132 0;
#X connect 26 3 217 0;
#X connect 26 3 287 0;
#X connect 26 4 38 0;
#X connect 26 4 133 0;
#X connect 26 4 218 0;
#X connect 26 4 288 0;
#X connect 26 5 40 0;
#X connect 26 5 134 0;
#X connect 26 5 219 0;
#X connect 26 5 289 0;
#X connect 26 6 42 0;
#X connect 26 6 135 0;
#X connect 26 6 220 0;
#X connect 26 6 290 0;
#X connect 26 7 44 0;
#X connect 26 7 136 0;
#X connect 26 7 221 0;
#X connect 26 7 291 0;
#X connect 26 8 46 0;
#X connect 26 8 137 0;
#X connect 26 8 226 0;
#X connect 26 8 292 0;
#X connect 26 9 48 0;
#X connect 26 9 138 0;
#X connect 26 9 222 0;
#X connect 26 9 293 0;
#X connect 26 10 50 0;
#X connect 26 10 139 0;
#X connect 26 10 223 0;
#X connect 26 10 294 0;
#X connect 26 11 52 0;
#X connect 26 11 140 0;
#X connect 26 11 224 0;
#X connect 26 11 295 0;
#X connect 26 12 54 0;
#X connect 26 12 141 0;
#X connect 26 12 225 0;
#X connect 26 12 296 0;
#X connect 26 13 56 0;
#X connect 26 13 142 0;
#X connect 26 13 227 0;
#X connect 26 13 297 0;
#X connect 26 14 58 0;
#X connect 26 14 143 0;
#X connect 26 14 228 0;
#X connect 26 14 299 0;
#X connect 26 15 96 0;
#X connect 26 15 145 0;
#X connect 26 15 230 0;
#X connect 26 15 301 0;
#X connect 27 0 30 0;
#X connect 28 0 125 0;
#X connect 29 0 33 1;
#X connect 30 0 32 0;
#X connect 31 0 30 1;
#X connect 32 0 28 0;
#X connect 32 0 68 0;
#X connect 33 0 32 0;
#X connect 34 0 32 0;
#X connect 35 0 34 1;
#X connect 36 0 32 0;
#X connect 37 0 36 1;
#X connect 38 0 32 0;
#X connect 39 0 38 1;
#X connect 40 0 32 0;
#X connect 41 0 40 1;
#X connect 42 0 32 0;
#X connect 43 0 42 1;
#X connect 44 0 32 0;
#X connect 45 0 44 1;
#X connect 46 0 32 0;
#X connect 47 0 46 1;
#X connect 48 0 32 0;
#X connect 49 0 48 1;
#X connect 50 0 32 0;
#X connect 51 0 50 1;
#X connect 52 0 32 0;
#X connect 53 0 52 1;
#X connect 54 0 32 0;
#X connect 55 0 54 1;
#X connect 56 0 32 0;
#X connect 57 0 56 1;
#X connect 58 0 32 0;
#X connect 59 0 58 1;
#X connect 60 0 32 0;
#X connect 61 0 60 1;
#X connect 62 0 318 1;
#X connect 63 0 62 0;
#X connect 65 0 66 0;
#X connect 66 0 62 1;
#X connect 68 0 67 0;
#X connect 72 0 71 0;
#X connect 73 0 71 1;
#X connect 77 0 99 0;
#X connect 78 0 79 0;
#X connect 79 0 80 0;
#X connect 80 0 81 0;
#X connect 80 1 82 0;
#X connect 81 0 21 1;
#X connect 83 0 87 0;
#X connect 83 1 86 0;
#X connect 87 0 88 0;
#X connect 87 0 89 0;
#X connect 88 0 87 1;
#X connect 89 0 98 0;
#X connect 92 0 93 0;
#X connect 94 0 92 0;
#X connect 95 0 94 0;
#X connect 96 0 60 0;
#X connect 97 0 81 0;
#X connect 99 0 83 0;
#X connect 100 0 101 1;
#X connect 101 0 103 0;
#X connect 102 0 101 0;
#X connect 105 0 106 0;
#X connect 106 0 21 1;
#X connect 107 0 21 0;
#X connect 126 0 128 0;
#X connect 127 0 146 0;
#X connect 128 0 129 0;
#X connect 129 0 127 0;
#X connect 130 0 129 0;
#X connect 131 0 129 0;
#X connect 132 0 129 0;
#X connect 133 0 129 0;
#X connect 134 0 129 0;
#X connect 135 0 129 0;
#X connect 136 0 129 0;
#X connect 137 0 129 0;
#X connect 138 0 129 0;
#X connect 139 0 129 0;
#X connect 140 0 129 0;
#X connect 141 0 129 0;
#X connect 142 0 129 0;
#X connect 143 0 129 0;
#X connect 144 0 129 0;
#X connect 145 0 144 0;
#X connect 147 0 132 1;
#X connect 148 0 131 1;
#X connect 149 0 130 1;
#X connect 150 0 128 1;
#X connect 151 0 133 1;
#X connect 152 0 134 1;
#X connect 153 0 135 1;
#X connect 154 0 136 1;
#X connect 155 0 140 1;
#X connect 156 0 139 1;
#X connect 157 0 138 1;
#X connect 158 0 137 1;
#X connect 159 0 142 1;
#X connect 160 0 143 1;
#X connect 161 0 144 1;
#X connect 162 0 141 1;
#X connect 163 0 3 0;
#X connect 164 0 4 0;
#X connect 165 0 5 0;
#X connect 166 0 6 0;
#X connect 167 0 7 0;
#X connect 168 0 8 0;
#X connect 169 0 9 0;
#X connect 170 0 10 0;
#X connect 171 0 11 0;
#X connect 172 0 12 0;
#X connect 173 0 13 0;
#X connect 174 0 14 0;
#X connect 175 0 15 0;
#X connect 176 0 16 0;
#X connect 177 0 17 0;
#X connect 178 0 18 0;
#X connect 179 0 109 0;
#X connect 180 0 110 0;
#X connect 181 0 111 0;
#X connect 182 0 112 0;
#X connect 183 0 113 0;
#X connect 184 0 114 0;
#X connect 185 0 115 0;
#X connect 186 0 116 0;
#X connect 187 0 117 0;
#X connect 188 0 118 0;
#X connect 189 0 119 0;
#X connect 190 0 120 0;
#X connect 191 0 121 0;
#X connect 192 0 122 0;
#X connect 193 0 123 0;
#X connect 194 0 124 0;
#X connect 211 0 213 0;
#X connect 212 0 264 0;
#X connect 213 0 214 0;
#X connect 214 0 212 0;
#X connect 215 0 214 0;
#X connect 216 0 214 0;
#X connect 217 0 214 0;
#X connect 218 0 214 0;
#X connect 219 0 214 0;
#X connect 220 0 214 0;
#X connect 221 0 214 0;
#X connect 222 0 214 0;
#X connect 223 0 214 0;
#X connect 224 0 214 0;
#X connect 225 0 214 0;
#X connect 226 0 214 0;
#X connect 227 0 214 0;
#X connect 228 0 214 0;
#X connect 229 0 214 0;
#X connect 230 0 229 0;
#X connect 231 0 213 1;
#X connect 232 0 215 1;
#X connect 233 0 216 1;
#X connect 234 0 217 1;
#X connect 235 0 218 1;
#X connect 236 0 219 1;
#X connect 237 0 220 1;
#X connect 238 0 221 1;
#X connect 239 0 226 1;
#X connect 240 0 225 1;
#X connect 241 0 224 1;
#X connect 242 0 223 1;
#X connect 243 0 222 1;
#X connect 244 0 229 1;
#X connect 245 0 228 1;
#X connect 246 0 227 1;
#X connect 247 0 195 0;
#X connect 248 0 196 0;
#X connect 249 0 197 0;
#X connect 250 0 198 0;
#X connect 251 0 199 0;
#X connect 252 0 200 0;
#X connect 253 0 201 0;
#X connect 254 0 202 0;
#X connect 255 0 203 0;
#X connect 256 0 204 0;
#X connect 257 0 205 0;
#X connect 258 0 206 0;
#X connect 259 0 207 0;
#X connect 260 0 208 0;
#X connect 261 0 209 0;
#X connect 262 0 210 0;
#X connect 281 0 283 0;
#X connect 282 0 317 0;
#X connect 283 0 284 0;
#X connect 284 0 282 0;
#X connect 285 0 284 0;
#X connect 286 0 284 0;
#X connect 287 0 284 0;
#X connect 288 0 284 0;
#X connect 289 0 284 0;
#X connect 290 0 284 0;
#X connect 291 0 284 0;
#X connect 292 0 284 0;
#X connect 293 0 284 0;
#X connect 294 0 284 0;
#X connect 295 0 284 0;
#X connect 296 0 284 0;
#X connect 297 0 284 0;
#X connect 298 0 297 1;
#X connect 299 0 284 0;
#X connect 300 0 284 0;
#X connect 301 0 300 0;
#X connect 302 0 283 1;
#X connect 303 0 285 1;
#X connect 304 0 286 1;
#X connect 305 0 287 1;
#X connect 306 0 288 1;
#X connect 307 0 289 1;
#X connect 308 0 290 1;
#X connect 309 0 291 1;
#X connect 310 0 296 1;
#X connect 311 0 295 1;
#X connect 312 0 294 1;
#X connect 313 0 293 1;
#X connect 314 0 292 1;
#X connect 315 0 300 1;
#X connect 316 0 299 1;
#X connect 318 0 23 0;
#X coords 0 -1 1 1 250 140 2 100 100;
