#N canvas 583 235 545 567 10;
#X obj 22 90 player 0 1;
#X obj 150 90 player 1 1;
#X obj 277 90 player 2 1;
#X obj 403 90 player 3 1;
#X obj 22 159 player 16 1;
#X obj 150 159 player 17 1;
#X obj 277 159 player 18 1;
#X obj 403 159 player 19 1;
#X obj 22 49 r pad1;
#X obj 150 50 r pad2;
#X obj 277 51 r pad3;
#X obj 403 45 r pad4;
#X obj 22 257 r pad5;
#X obj 150 256 r pad6;
#X obj 282 260 r pad7;
#X obj 405 262 r pad8;
#X obj 402 297 player 19 1;
#X obj 404 400 r pad9;
#X connect 8 0 0 0;
#X connect 9 0 1 0;
#X connect 10 0 2 0;
#X connect 11 0 3 0;
#X connect 12 0 4 0;
#X connect 13 0 5 0;
#X connect 14 0 6 0;
#X connect 15 0 7 0;
#X connect 17 0 16 0;
